<?xml version="1.0" encoding="UTF-8" standalone="no"?>
<svg
   xmlns:dc="http://purl.org/dc/elements/1.1/"
   xmlns:cc="http://creativecommons.org/ns#"
   xmlns:rdf="http://www.w3.org/1999/02/22-rdf-syntax-ns#"
   xmlns:svg="http://www.w3.org/2000/svg"
   xmlns="http://www.w3.org/2000/svg"
   viewBox="0 0 2304 2304"
   height="2304"
   width="2304"
   xml:space="preserve"
   id="svg2"
   version="1.1"><metadata
     id="metadata8"><rdf:RDF><cc:Work
         rdf:about=""><dc:format>image/svg+xml</dc:format><dc:type
           rdf:resource="http://purl.org/dc/dcmitype/StillImage" /></cc:Work></rdf:RDF></metadata><defs
     id="defs6"><clipPath
       id="clipPath18"
       clipPathUnits="userSpaceOnUse"><path
         id="path16"
         d="M 0,1728 H 1728 V 0 H 0 Z" /></clipPath><clipPath
       id="clipPath30"
       clipPathUnits="userSpaceOnUse"><path
         id="path28"
         d="M 0,1728 H 1728 V 0 H 0 Z" /></clipPath><clipPath
       id="clipPath42"
       clipPathUnits="userSpaceOnUse"><path
         id="path40"
         d="M 0,1728 H 1728 V 0 H 0 Z" /></clipPath><clipPath
       id="clipPath54"
       clipPathUnits="userSpaceOnUse"><path
         id="path52"
         d="M 0,1728 H 1728 V 0 H 0 Z" /></clipPath><clipPath
       id="clipPath66"
       clipPathUnits="userSpaceOnUse"><path
         id="path64"
         d="M 0,1728 H 1728 V 0 H 0 Z" /></clipPath><clipPath
       id="clipPath78"
       clipPathUnits="userSpaceOnUse"><path
         id="path76"
         d="M 0,1728 H 1728 V 0 H 0 Z" /></clipPath><clipPath
       id="clipPath90"
       clipPathUnits="userSpaceOnUse"><path
         id="path88"
         d="M 0,1728 H 1728 V 0 H 0 Z" /></clipPath><clipPath
       id="clipPath102"
       clipPathUnits="userSpaceOnUse"><path
         id="path100"
         d="M 0,1728 H 1728 V 0 H 0 Z" /></clipPath><clipPath
       id="clipPath114"
       clipPathUnits="userSpaceOnUse"><path
         id="path112"
         d="M 0,1728 H 1728 V 0 H 0 Z" /></clipPath><clipPath
       id="clipPath126"
       clipPathUnits="userSpaceOnUse"><path
         id="path124"
         d="M 0,1728 H 1728 V 0 H 0 Z" /></clipPath></defs><g
     transform="matrix(1.3333333,0,0,-1.3333333,0,2304)"
     id="g10"><g
       id="g12"><g
         clip-path="url(#clipPath18)"
         id="g14"><g
           transform="translate(1059,237.75)"
           id="g20"><path
             id="path22"
             style="fill:#231f20;fill-opacity:1;fill-rule:nonzero;stroke:none"
             d="m 0,0 c 0,0 24,66.583 0,133.917 199.333,108 258.667,321.333 234.069,529.741 0,0 115.494,-173.992 29.998,-380.981 C 178.571,75.688 0,0 0,0" /></g></g></g><g
       id="g24"><g
         clip-path="url(#clipPath30)"
         id="g26"><g
           transform="translate(726,386.333)"
           id="g32"><path
             id="path34"
             style="fill:#231f20;fill-opacity:1;fill-rule:nonzero;stroke:none"
             d="m 0,0 c 0,0 117,-68 285.333,-28.333 0,0 45.334,-199.667 -127.416,-209.583 C -31.996,-248.818 0,0 0,0" /></g></g></g><g
       id="g36"><g
         clip-path="url(#clipPath42)"
         id="g38"><g
           transform="translate(665,425.667)"
           id="g44"><path
             id="path46"
             style="fill:#231f20;fill-opacity:1;fill-rule:nonzero;stroke:none"
             d="m 0,0 c -287.986,236.988 -154.492,589.47 -154.492,589.47 0,0 -143.945,-134.36 -94.496,-376.481 58.054,-284.255 286.137,-414.671 286.137,-414.671 0,0 -72.25,84.75 -37.149,201.682" /></g></g></g><g
       id="g48"><g
         clip-path="url(#clipPath54)"
         id="g50"><g
           transform="translate(776,541)"
           id="g56"><path
             id="path58"
             style="fill:#231f20;fill-opacity:1;fill-rule:nonzero;stroke:none"
             d="m 0,0 c 92,-28.5 160.333,-1.667 160.333,-1.667 l 54.334,-115.666 c -147.667,-38.667 -250.334,32 -250.334,32 0,0 16.917,43.583 35.667,85.333" /></g></g></g><g
       id="g60"><g
         clip-path="url(#clipPath66)"
         id="g62"><g
           transform="translate(790.5,582.5)"
           id="g68"><path
             id="path70"
             style="fill:#231f20;fill-opacity:1;fill-rule:nonzero;stroke:none"
             d="m 0,0 c 41,87.5 58.5,170 58.5,170 0,0 21.667,-80.5 70.667,-176.5 C 51.417,-26.667 0,0 0,0" /></g></g></g><g
       id="g72"><g
         clip-path="url(#clipPath78)"
         id="g74"><g
           transform="translate(962.5,593.25)"
           id="g80"><path
             id="path82"
             style="fill:#231f20;fill-opacity:1;fill-rule:nonzero;stroke:none"
             d="M 0,0 V 0 C 298.5,193.75 101.5,663.75 101.5,663.75 379.5,150.75 16,-35.5 16,-35.5 l 55.75,-117 c 0,0 97.5,46.75 158.324,169.672 C 426.564,353.155 44,760.25 44,760.25 57.332,577.366 16.43,527.99 -54.5,392.75 -129.5,249.75 -54.086,103.744 0,0" /></g></g></g><g
       id="g84"><g
         clip-path="url(#clipPath90)"
         id="g86"><g
           transform="translate(794.3335,1058.3335)"
           id="g92"><path
             id="path94"
             style="fill:#231f20;fill-opacity:1;fill-rule:nonzero;stroke:none"
             d="M 0,0 C 0,0 68.667,-9.833 108.667,24.167 81.333,-14 47.831,-78.443 50.167,-79.833 39.167,-45.167 0,0 0,0" /></g></g></g><g
       id="g96"><g
         clip-path="url(#clipPath102)"
         id="g98"><g
           transform="translate(745.25,606)"
           id="g104"><path
             id="path106"
             style="fill:#231f20;fill-opacity:1;fill-rule:nonzero;stroke:none"
             d="M 0,0 C 0,0 82.25,164 64.232,305.099 58.75,360 32.402,398.975 -7.583,440.667 -241.25,161.5 0,0 0,0" /></g></g></g><g
       id="g108"><g
         clip-path="url(#clipPath114)"
         id="g110"><g
           transform="translate(669.6665,1197.6665)"
           id="g116"><path
             id="path118"
             style="fill:#231f20;fill-opacity:1;fill-rule:nonzero;stroke:none"
             d="m 0,0 c 14.667,-72.667 44,-118 44,-118 0,0 -118,-140 -119.333,-261.333 -6,-174 129.791,-253.709 129.791,-253.709 0,0 -19.625,-42.875 -34.125,-74.125 C -123.667,-575.833 -134,-410 -134,-410 c 0,0 -28.667,234.667 134,410" /></g></g></g><g
       id="g120"><g
         clip-path="url(#clipPath126)"
         id="g122"><g
           transform="translate(750.687,1124.7476)"
           id="g128"><path
             id="path130"
             style="fill:#231f20;fill-opacity:1;fill-rule:nonzero;stroke:none"
             d="m 0,0 c 0.164,-0.218 0.485,-0.241 0.676,-0.046 5.374,5.492 69.045,71.925 100.637,168.298 18.356,55.996 16.321,163.979 17,159.667 25.333,-161 -2.667,-219.667 -38.667,-281.667 C 56.907,7.09 32.182,-19.122 30.414,-20.976 30.348,-21.045 98.067,-48.606 154.98,15.586 272.151,158.369 94.459,488.708 80.21,514.633 79.986,515.04 79.369,514.872 79.382,514.408 79.806,499.54 80.263,395.987 18.813,246.752 -24.581,133.529 -42.599,56.628 0,0" /></g></g></g></g></svg>